<?xml version="1.0" encoding="utf-8" standalone="no"?>
<!DOCTYPE svg PUBLIC "-//W3C//DTD SVG 1.1//EN"
  "http://www.w3.org/Graphics/SVG/1.1/DTD/svg11.dtd">
<!-- Created with matplotlib (https://matplotlib.org/) -->
<svg height="216pt" version="1.1" viewBox="0 0 324 216" width="324pt" xmlns="http://www.w3.org/2000/svg" xmlns:xlink="http://www.w3.org/1999/xlink">
 <defs>
  <style type="text/css">
*{stroke-linecap:butt;stroke-linejoin:round;}
  </style>
 </defs>
 <g id="figure_1">
  <g id="patch_1">
   <path d="M 0 216 
L 324 216 
L 324 0 
L 0 0 
z
" style="fill:#ffffff;"/>
  </g>
  <g id="axes_1">
   <g id="patch_2">
    <path d="M 39.91 183.83375 
L 322.9 183.83375 
L 322.9 22.5475 
L 39.91 22.5475 
z
" style="fill:#ffffff;"/>
   </g>
   <g id="matplotlib.axis_1">
    <g id="xtick_1">
     <g id="line2d_1">
      <defs>
       <path d="M 0 0 
L 0 3.5 
" id="m3be974ef22" style="stroke:#000000;stroke-width:0.6;"/>
      </defs>
      <g>
       <use style="stroke:#000000;stroke-width:0.6;" x="60.123571" xlink:href="#m3be974ef22" y="183.83375"/>
      </g>
     </g>
     <g id="text_1">
      <!-- −5 -->
      <defs>
       <path d="M 62.09375 22 
L 6.40625 22 
L 6.40625 28.59375 
L 62.09375 28.59375 
z
" id="STIXGeneral-Regular-8722"/>
       <path d="M 43.796875 68.09375 
L 40.203125 59.59375 
Q 39.59375 58.296875 37.5 58.296875 
L 18.09375 58.296875 
L 14.09375 49.796875 
Q 25.09375 47.703125 30 45.25 
Q 34.90625 42.796875 39.09375 37 
Q 42.59375 32.203125 42.59375 24.296875 
Q 42.59375 17.09375 40.25 12.1875 
Q 37.90625 7.296875 32.796875 3.5 
Q 26 -1.40625 15.796875 -1.40625 
Q 10.09375 -1.40625 6.59375 0.296875 
Q 3.09375 2 3.09375 4.796875 
Q 3.09375 8.59375 7.59375 8.59375 
Q 11.203125 8.59375 15 5.5 
Q 18.90625 2.296875 22.09375 2.296875 
Q 27.296875 2.296875 31.4375 7.5 
Q 35.59375 12.703125 35.59375 19.203125 
Q 35.59375 28.796875 28.90625 34.203125 
Q 20.203125 41.203125 7.59375 41.203125 
Q 6.40625 41.203125 6.40625 42 
L 6.5 42.5 
L 17.40625 66.203125 
L 38.09375 66.203125 
Q 39.796875 66.203125 40.75 66.703125 
Q 41.703125 67.203125 42.90625 68.796875 
z
" id="STIXGeneral-Regular-53"/>
      </defs>
      <g transform="translate(54.791071 196.980469)scale(0.09 -0.09)">
       <use xlink:href="#STIXGeneral-Regular-8722"/>
       <use x="68.499985" xlink:href="#STIXGeneral-Regular-53"/>
      </g>
     </g>
    </g>
    <g id="xtick_2">
     <g id="line2d_2">
      <g>
       <use style="stroke:#000000;stroke-width:0.6;" x="100.550714" xlink:href="#m3be974ef22" y="183.83375"/>
      </g>
     </g>
     <g id="text_2">
      <!-- −4 -->
      <defs>
       <path d="M 47.296875 16.703125 
L 37 16.703125 
L 37 0 
L 29.203125 0 
L 29.203125 16.703125 
L 1.203125 16.703125 
L 1.203125 23.09375 
L 32.59375 67.59375 
L 37 67.59375 
L 37 23.09375 
L 47.296875 23.09375 
z
M 29.203125 23.09375 
L 29.203125 57.40625 
L 5.203125 23.09375 
z
" id="STIXGeneral-Regular-52"/>
      </defs>
      <g transform="translate(95.218214 196.980469)scale(0.09 -0.09)">
       <use xlink:href="#STIXGeneral-Regular-8722"/>
       <use x="68.499985" xlink:href="#STIXGeneral-Regular-52"/>
      </g>
     </g>
    </g>
    <g id="xtick_3">
     <g id="line2d_3">
      <g>
       <use style="stroke:#000000;stroke-width:0.6;" x="140.977857" xlink:href="#m3be974ef22" y="183.83375"/>
      </g>
     </g>
     <g id="text_3">
      <!-- −3 -->
      <defs>
       <path d="M 6.09375 51 
L 4.5 51.40625 
Q 6.796875 58.90625 11.6875 63.25 
Q 16.59375 67.59375 24.09375 67.59375 
Q 31.09375 67.59375 35.390625 63.796875 
Q 39.703125 60 39.703125 53.90625 
Q 39.703125 45.703125 30.40625 40.09375 
Q 35.90625 37.703125 38.703125 34.796875 
Q 43.09375 29.90625 43.09375 21.90625 
Q 43.09375 13.90625 38.5 7.90625 
Q 35.09375 3.296875 28.75 0.9375 
Q 22.40625 -1.40625 15.296875 -1.40625 
Q 4.09375 -1.40625 4.09375 4.296875 
Q 4.09375 5.90625 5.296875 6.90625 
Q 6.5 7.90625 8.203125 7.90625 
Q 10.703125 7.90625 14.296875 5.296875 
Q 18.703125 2.203125 22.90625 2.203125 
Q 28.40625 2.203125 32.15625 6.640625 
Q 35.90625 11.09375 35.90625 17.5 
Q 35.90625 29 25.5 32 
Q 22.40625 33 15.296875 33 
L 15.296875 34.40625 
Q 20.90625 36.296875 23.703125 38 
Q 31.796875 42.59375 31.796875 51.40625 
Q 31.796875 56.40625 28.9375 59 
Q 26.09375 61.59375 21 61.59375 
Q 12 61.59375 6.09375 51 
z
" id="STIXGeneral-Regular-51"/>
      </defs>
      <g transform="translate(135.645357 196.980469)scale(0.09 -0.09)">
       <use xlink:href="#STIXGeneral-Regular-8722"/>
       <use x="68.499985" xlink:href="#STIXGeneral-Regular-51"/>
      </g>
     </g>
    </g>
    <g id="xtick_4">
     <g id="line2d_4">
      <g>
       <use style="stroke:#000000;stroke-width:0.6;" x="181.405" xlink:href="#m3be974ef22" y="183.83375"/>
      </g>
     </g>
     <g id="text_4">
      <!-- −2 -->
      <defs>
       <path d="M 47.40625 13.703125 
L 42 0 
L 2.90625 0 
L 2.90625 1.203125 
L 20.703125 20.09375 
Q 27.703125 27.40625 30.703125 33.5 
Q 33.703125 39.59375 33.703125 46.09375 
Q 33.703125 52.796875 30 56.5 
Q 26.296875 60.203125 19.796875 60.203125 
Q 14.40625 60.203125 11.25 57.390625 
Q 8.09375 54.59375 5.09375 47.203125 
L 3 47.703125 
Q 4.703125 57 9.84375 62.296875 
Q 15 67.59375 23.796875 67.59375 
Q 32.09375 67.59375 37.1875 62.59375 
Q 42.296875 57.59375 42.296875 50 
Q 42.296875 38.703125 29.5 25.203125 
L 13 7.59375 
L 36.40625 7.59375 
Q 39.703125 7.59375 41.640625 8.890625 
Q 43.59375 10.203125 46 14.296875 
z
" id="STIXGeneral-Regular-50"/>
      </defs>
      <g transform="translate(176.0725 196.980469)scale(0.09 -0.09)">
       <use xlink:href="#STIXGeneral-Regular-8722"/>
       <use x="68.499985" xlink:href="#STIXGeneral-Regular-50"/>
      </g>
     </g>
    </g>
    <g id="xtick_5">
     <g id="line2d_5">
      <g>
       <use style="stroke:#000000;stroke-width:0.6;" x="221.832143" xlink:href="#m3be974ef22" y="183.83375"/>
      </g>
     </g>
     <g id="text_5">
      <!-- −1 -->
      <defs>
       <path d="M 39.40625 0 
L 11.796875 0 
L 11.796875 1.5 
Q 17.296875 1.796875 19.296875 3.546875 
Q 21.296875 5.296875 21.296875 9.5 
L 21.296875 54.40625 
Q 21.296875 59.296875 18.296875 59.296875 
Q 16.90625 59.296875 13.796875 58.09375 
L 11.09375 57.09375 
L 11.09375 58.5 
L 29 67.59375 
L 29.90625 67.296875 
L 29.90625 7.59375 
Q 29.90625 4.296875 31.90625 2.890625 
Q 33.90625 1.5 39.40625 1.5 
z
" id="STIXGeneral-Regular-49"/>
      </defs>
      <g transform="translate(216.499643 196.980469)scale(0.09 -0.09)">
       <use xlink:href="#STIXGeneral-Regular-8722"/>
       <use x="68.499985" xlink:href="#STIXGeneral-Regular-49"/>
      </g>
     </g>
    </g>
    <g id="xtick_6">
     <g id="line2d_6">
      <g>
       <use style="stroke:#000000;stroke-width:0.6;" x="262.259286" xlink:href="#m3be974ef22" y="183.83375"/>
      </g>
     </g>
     <g id="text_6">
      <!-- 0 -->
      <defs>
       <path d="M 47.59375 33 
Q 47.59375 26.296875 46.296875 20.34375 
Q 45 14.40625 42.453125 9.40625 
Q 39.90625 4.40625 35.40625 1.5 
Q 30.90625 -1.40625 25 -1.40625 
Q 18.90625 -1.40625 14.296875 1.6875 
Q 9.703125 4.796875 7.203125 10 
Q 4.703125 15.203125 3.546875 21.09375 
Q 2.40625 27 2.40625 33.59375 
Q 2.40625 42.90625 4.703125 50.34375 
Q 7 57.796875 12.34375 62.6875 
Q 17.703125 67.59375 25.40625 67.59375 
Q 35.203125 67.59375 41.390625 58 
Q 47.59375 48.40625 47.59375 33 
z
M 38 32.5 
Q 38 48.296875 34.640625 56.640625 
Q 31.296875 65 24.796875 65 
Q 18.59375 65 15.296875 56.59375 
Q 12 48.203125 12 32.90625 
Q 12 17.5 15.296875 9.34375 
Q 18.59375 1.203125 25 1.203125 
Q 31.296875 1.203125 34.640625 9.34375 
Q 38 17.5 38 32.5 
z
" id="STIXGeneral-Regular-48"/>
      </defs>
      <g transform="translate(260.009286 196.980469)scale(0.09 -0.09)">
       <use xlink:href="#STIXGeneral-Regular-48"/>
      </g>
     </g>
    </g>
    <g id="xtick_7">
     <g id="line2d_7">
      <g>
       <use style="stroke:#000000;stroke-width:0.6;" x="302.686429" xlink:href="#m3be974ef22" y="183.83375"/>
      </g>
     </g>
     <g id="text_7">
      <!-- 1 -->
      <g transform="translate(300.436429 196.980469)scale(0.09 -0.09)">
       <use xlink:href="#STIXGeneral-Regular-49"/>
      </g>
     </g>
    </g>
    <g id="text_8">
     <!-- $L^{1/\nu}(\beta-\beta_c)$ -->
     <defs>
      <path d="M 55.90625 18 
L 50.09375 0 
L -0.796875 0 
L -0.796875 1.59375 
Q 3.40625 2 4.703125 3.296875 
Q 6 4.59375 7.40625 9.40625 
L 19.59375 53.203125 
Q 20.703125 56.90625 20.703125 59.40625 
Q 20.703125 61.59375 19.140625 62.5 
Q 17.59375 63.40625 13 63.703125 
L 13 65.296875 
L 40.296875 65.296875 
L 40.296875 63.703125 
Q 35.703125 63.40625 33.546875 61.796875 
Q 31.40625 60.203125 30.203125 56 
L 18.203125 13.09375 
Q 17.203125 9.296875 17.203125 7.703125 
Q 17.203125 5.40625 19.390625 4.5 
Q 21.59375 3.59375 27.703125 3.59375 
Q 35.40625 3.59375 38.75 4.296875 
Q 42.09375 5 45.703125 7.40625 
Q 49.796875 10.09375 53.90625 18.59375 
z
" id="STIXGeneral-Italic-76"/>
      <path d="M 28.703125 67.59375 
L 5.90625 -1.40625 
L -0.90625 -1.40625 
L 22 67.59375 
z
" id="STIXGeneral-Regular-47"/>
      <path d="M 44.296875 43.40625 
L 45.90625 43 
Q 44.796875 36.59375 43 30.796875 
Q 41.203125 25 37.84375 19 
Q 34.5 13 30.140625 8.640625 
Q 25.796875 4.296875 19.25 1.390625 
Q 12.703125 -1.5 4.796875 -1.796875 
Q 2 -1.796875 2 0.40625 
Q 2 1 2.296875 1.703125 
L 11.5 35 
Q 11.703125 36 11.703125 36.703125 
Q 11.703125 38.296875 10.203125 38.796875 
Q 8.703125 39.296875 5.203125 39.40625 
L 5.203125 41 
L 21.5 44.09375 
L 21.796875 43.90625 
L 11.296875 6.09375 
Q 34.5 8.296875 44.296875 43.40625 
z
" id="STIXGeneral-Italic-957"/>
      <path d="M 30.40625 -16.09375 
L 29.203125 -17.703125 
Q 17.59375 -11.09375 11.1875 0.5 
Q 4.796875 12.09375 4.796875 25.203125 
Q 4.796875 52.90625 29.5 67.59375 
L 30.40625 66 
Q 20.203125 57.296875 16.796875 48.84375 
Q 13.40625 40.40625 13.40625 25.5 
Q 13.40625 10.703125 16.90625 1.5 
Q 20.40625 -7.703125 30.40625 -16.09375 
z
" id="STIXGeneral-Regular-40"/>
      <path d="M -0.90625 -12.703125 
L 12.796875 36.796875 
Q 14.09375 41.59375 15.546875 45.4375 
Q 17 49.296875 19.296875 53.640625 
Q 21.59375 58 24.296875 60.953125 
Q 27 63.90625 30.890625 65.84375 
Q 34.796875 67.796875 39.296875 67.796875 
Q 44 67.796875 47.703125 65.34375 
Q 51.40625 62.90625 51.40625 57.703125 
Q 51.40625 52 47.453125 46.890625 
Q 43.5 41.796875 38.59375 39.59375 
L 38.59375 39.5 
Q 41.90625 39.203125 44.65625 36.25 
Q 47.40625 33.296875 47.40625 28.40625 
Q 47.40625 21.5 42.09375 13.640625 
Q 36.796875 5.796875 29.703125 1.90625 
Q 24.40625 -1.09375 17.296875 -1.09375 
Q 14.40625 -1.09375 10.703125 0.59375 
L 6.90625 -12.703125 
Q 5.5 -17.59375 3.796875 -20.5 
L -4 -20.5 
Q -2.40625 -18.09375 -0.90625 -12.703125 
z
M 23.296875 47.703125 
L 11.90625 4.5 
Q 11.90625 2.90625 13.25 1.84375 
Q 14.59375 0.796875 16.703125 0.796875 
Q 24.90625 0.796875 31.703125 11 
Q 38.5 21.203125 38.5 31.703125 
Q 38.5 37.59375 34.5 37.59375 
Q 33.59375 37.59375 31.9375 37.1875 
Q 30.296875 36.796875 29.5 36.796875 
Q 28.203125 36.796875 27.34375 37.4375 
Q 26.5 38.09375 26.5 39 
Q 26.5 41.40625 30.90625 41.40625 
Q 31.203125 41.40625 32.796875 41.09375 
Q 34.40625 40.796875 35.203125 40.796875 
Q 38.296875 40.796875 41.25 46.390625 
Q 44.203125 52 44.203125 56.59375 
Q 44.203125 61.90625 42.390625 63.796875 
Q 40.59375 65.703125 37.5 65.703125 
Q 32.5 65.703125 28.84375 60.390625 
Q 25.203125 55.09375 23.296875 47.703125 
z
" id="STIXGeneral-Italic-946"/>
      <path d="M 35 10.703125 
L 36.59375 9.703125 
Q 32 3.90625 27.640625 1.40625 
Q 23.296875 -1.09375 17.703125 -1.09375 
Q 10.59375 -1.09375 6.796875 2.796875 
Q 3 6.703125 3 14.296875 
Q 3 21 6.390625 27.25 
Q 9.796875 33.5 15.296875 38 
Q 23 44.09375 32 44.09375 
Q 36.59375 44.09375 39.546875 41.796875 
Q 42.5 39.5 42.5 36 
Q 42.5 34 41.09375 32.59375 
Q 39.703125 31.203125 37.703125 31.203125 
Q 35.703125 31.203125 34.75 32.34375 
Q 33.796875 33.5 33.796875 35.203125 
Q 33.796875 36.09375 34.546875 37.546875 
Q 35.296875 39 35.296875 40 
Q 35.296875 42 31.59375 42 
Q 25.296875 42 20.703125 37.203125 
Q 11.59375 27.59375 11.59375 13.90625 
Q 11.59375 8.5 13.890625 5.5 
Q 16.203125 2.5 20.5 2.5 
Q 24.40625 2.5 27.59375 4.390625 
Q 30.796875 6.296875 35 10.703125 
z
" id="STIXGeneral-Italic-99"/>
      <path d="M 2.90625 66 
L 4.09375 67.59375 
Q 15.5 60.796875 22 49.1875 
Q 28.5 37.59375 28.5 24.703125 
Q 28.5 -2.59375 3.796875 -17.703125 
L 2.90625 -16.09375 
Q 13.203125 -7.59375 16.546875 0.84375 
Q 19.90625 9.296875 19.90625 24.40625 
Q 19.90625 39.59375 16.546875 48.75 
Q 13.203125 57.90625 2.90625 66 
z
" id="STIXGeneral-Regular-41"/>
     </defs>
     <g transform="translate(158.455 211.163438)scale(0.1 -0.1)">
      <use transform="translate(0 0.409375)" xlink:href="#STIXGeneral-Italic-76"/>
      <use transform="translate(66.225772 35.684375)scale(0.7)" xlink:href="#STIXGeneral-Regular-49"/>
      <use transform="translate(101.225761 35.684375)scale(0.7)" xlink:href="#STIXGeneral-Regular-47"/>
      <use transform="translate(120.685753 35.684375)scale(0.7)" xlink:href="#STIXGeneral-Italic-957"/>
      <use transform="translate(157.995117 0.409375)" xlink:href="#STIXGeneral-Regular-40"/>
      <use transform="translate(191.295105 0.409375)" xlink:href="#STIXGeneral-Italic-946"/>
      <use transform="translate(256.335092 0.409375)" xlink:href="#STIXGeneral-Regular-8722"/>
      <use transform="translate(339.275073 0.409375)" xlink:href="#STIXGeneral-Italic-946"/>
      <use transform="translate(389.875064 -12.81875)scale(0.7)" xlink:href="#STIXGeneral-Italic-99"/>
      <use transform="translate(425.364435 0.409375)" xlink:href="#STIXGeneral-Regular-41"/>
     </g>
    </g>
   </g>
   <g id="matplotlib.axis_2">
    <g id="ytick_1">
     <g id="line2d_8">
      <defs>
       <path d="M 0 0 
L -3.5 0 
" id="mbebaf0dfd9" style="stroke:#000000;stroke-width:0.6;"/>
      </defs>
      <g>
       <use style="stroke:#000000;stroke-width:0.6;" x="39.91" xlink:href="#mbebaf0dfd9" y="178.205061"/>
      </g>
     </g>
     <g id="text_9">
      <!-- 0.00 -->
      <defs>
       <path d="M 18.09375 4.296875 
Q 18.09375 2.09375 16.4375 0.5 
Q 14.796875 -1.09375 12.5 -1.09375 
Q 10.203125 -1.09375 8.59375 0.5 
Q 7 2.09375 7 4.390625 
Q 7 6.703125 8.640625 8.34375 
Q 10.296875 10 12.59375 10 
Q 14.796875 10 16.4375 8.296875 
Q 18.09375 6.59375 18.09375 4.296875 
z
" id="STIXGeneral-Regular-46"/>
      </defs>
      <g transform="translate(17.16 181.27842)scale(0.09 -0.09)">
       <use xlink:href="#STIXGeneral-Regular-48"/>
       <use x="49.999985" xlink:href="#STIXGeneral-Regular-46"/>
       <use x="74.999969" xlink:href="#STIXGeneral-Regular-48"/>
       <use x="124.999954" xlink:href="#STIXGeneral-Regular-48"/>
      </g>
     </g>
    </g>
    <g id="ytick_2">
     <g id="line2d_9">
      <g>
       <use style="stroke:#000000;stroke-width:0.6;" x="39.91" xlink:href="#mbebaf0dfd9" y="147.742339"/>
      </g>
     </g>
     <g id="text_10">
      <!-- 0.01 -->
      <g transform="translate(17.16 150.815698)scale(0.09 -0.09)">
       <use xlink:href="#STIXGeneral-Regular-48"/>
       <use x="49.999985" xlink:href="#STIXGeneral-Regular-46"/>
       <use x="74.999969" xlink:href="#STIXGeneral-Regular-48"/>
       <use x="124.999954" xlink:href="#STIXGeneral-Regular-49"/>
      </g>
     </g>
    </g>
    <g id="ytick_3">
     <g id="line2d_10">
      <g>
       <use style="stroke:#000000;stroke-width:0.6;" x="39.91" xlink:href="#mbebaf0dfd9" y="117.279616"/>
      </g>
     </g>
     <g id="text_11">
      <!-- 0.02 -->
      <g transform="translate(17.16 120.352976)scale(0.09 -0.09)">
       <use xlink:href="#STIXGeneral-Regular-48"/>
       <use x="49.999985" xlink:href="#STIXGeneral-Regular-46"/>
       <use x="74.999969" xlink:href="#STIXGeneral-Regular-48"/>
       <use x="124.999954" xlink:href="#STIXGeneral-Regular-50"/>
      </g>
     </g>
    </g>
    <g id="ytick_4">
     <g id="line2d_11">
      <g>
       <use style="stroke:#000000;stroke-width:0.6;" x="39.91" xlink:href="#mbebaf0dfd9" y="86.816894"/>
      </g>
     </g>
     <g id="text_12">
      <!-- 0.03 -->
      <g transform="translate(17.16 89.890253)scale(0.09 -0.09)">
       <use xlink:href="#STIXGeneral-Regular-48"/>
       <use x="49.999985" xlink:href="#STIXGeneral-Regular-46"/>
       <use x="74.999969" xlink:href="#STIXGeneral-Regular-48"/>
       <use x="124.999954" xlink:href="#STIXGeneral-Regular-51"/>
      </g>
     </g>
    </g>
    <g id="ytick_5">
     <g id="line2d_12">
      <g>
       <use style="stroke:#000000;stroke-width:0.6;" x="39.91" xlink:href="#mbebaf0dfd9" y="56.354172"/>
      </g>
     </g>
     <g id="text_13">
      <!-- 0.04 -->
      <g transform="translate(17.16 59.427531)scale(0.09 -0.09)">
       <use xlink:href="#STIXGeneral-Regular-48"/>
       <use x="49.999985" xlink:href="#STIXGeneral-Regular-46"/>
       <use x="74.999969" xlink:href="#STIXGeneral-Regular-48"/>
       <use x="124.999954" xlink:href="#STIXGeneral-Regular-52"/>
      </g>
     </g>
    </g>
    <g id="ytick_6">
     <g id="line2d_13">
      <g>
       <use style="stroke:#000000;stroke-width:0.6;" x="39.91" xlink:href="#mbebaf0dfd9" y="25.89145"/>
      </g>
     </g>
     <g id="text_14">
      <!-- 0.05 -->
      <g transform="translate(17.16 28.964809)scale(0.09 -0.09)">
       <use xlink:href="#STIXGeneral-Regular-48"/>
       <use x="49.999985" xlink:href="#STIXGeneral-Regular-46"/>
       <use x="74.999969" xlink:href="#STIXGeneral-Regular-48"/>
       <use x="124.999954" xlink:href="#STIXGeneral-Regular-53"/>
      </g>
     </g>
    </g>
    <g id="text_15">
     <!-- $L^{-\gamma/\nu}\chi$ -->
     <defs>
      <path d="M 43.796875 42.796875 
L 16.40625 3.90625 
Q 16.203125 0.5 16.09375 -1.140625 
Q 16 -2.796875 15.59375 -6.34375 
Q 15.203125 -9.90625 14.59375 -11.84375 
Q 14 -13.796875 13.046875 -16.140625 
Q 12.09375 -18.5 10.640625 -19.546875 
Q 9.203125 -20.59375 7.296875 -20.59375 
Q 3.5 -20.59375 3.5 -15.59375 
Q 3.5 -13.203125 5.140625 -9.5 
Q 6.796875 -5.796875 9.5 -0.890625 
Q 12.203125 4 13.203125 6.203125 
Q 14.703125 20.203125 14.703125 24.296875 
Q 14.703125 37.203125 9.90625 37.203125 
Q 8.40625 37.203125 6.59375 35.296875 
Q 4.796875 33.40625 3.5 29.59375 
L 1.90625 29.59375 
Q 5.59375 43.5 11.796875 43.5 
Q 15.40625 43.5 16.796875 40.453125 
Q 18.203125 37.40625 18.203125 31.703125 
Q 18.203125 28.90625 17.890625 25.5 
Q 17.59375 22.09375 17.046875 17.9375 
Q 16.5 13.796875 16.40625 12.703125 
L 34.203125 42.796875 
z
" id="STIXGeneral-Italic-947"/>
      <path d="M 49.796875 42.796875 
L 21.296875 7.5 
Q 21.203125 4.90625 21.203125 0.59375 
Q 21.203125 -8.296875 22.25 -11.34375 
Q 23.296875 -14.40625 25.703125 -14.40625 
Q 26.90625 -14.40625 28.5 -12.546875 
Q 30.09375 -10.703125 31.40625 -7 
L 33 -7 
Q 30.296875 -20.703125 23.703125 -20.703125 
Q 20.5 -20.703125 18.953125 -17.046875 
Q 17.40625 -13.40625 17.40625 -7.90625 
Q 17.40625 -0.5 18.203125 4.5 
L -1.5 -19.90625 
L -10.796875 -19.90625 
L 17.90625 14.59375 
L 17.90625 23.5 
Q 17.90625 31.09375 16.953125 34.4375 
Q 16 37.796875 13.40625 37.796875 
Q 12.09375 37.796875 10.34375 36.046875 
Q 8.59375 34.296875 7.296875 30.5 
L 5.703125 30.5 
Q 6.5 33.5 7.203125 35.5 
Q 7.90625 37.5 9.046875 39.703125 
Q 10.203125 41.90625 11.796875 43 
Q 13.40625 44.09375 15.5 44.09375 
Q 18.40625 44.09375 19.84375 40.890625 
Q 21.296875 37.703125 21.296875 29.703125 
Q 21.296875 29.40625 21.25 28.40625 
Q 21.203125 27.40625 21.09375 24.546875 
Q 21 21.703125 20.90625 17.40625 
L 40.5 42.796875 
z
" id="STIXGeneral-Italic-967"/>
     </defs>
     <g transform="translate(10.989687 115.490625)rotate(-90)scale(0.1 -0.1)">
      <use transform="translate(0 0.409375)" xlink:href="#STIXGeneral-Italic-76"/>
      <use transform="translate(66.225772 35.684375)scale(0.7)" xlink:href="#STIXGeneral-Regular-8722"/>
      <use transform="translate(114.175761 35.684375)scale(0.7)" xlink:href="#STIXGeneral-Italic-947"/>
      <use transform="translate(142.875751 35.684375)scale(0.7)" xlink:href="#STIXGeneral-Regular-47"/>
      <use transform="translate(162.335742 35.684375)scale(0.7)" xlink:href="#STIXGeneral-Italic-957"/>
      <use transform="translate(199.645107 0.409375)" xlink:href="#STIXGeneral-Italic-967"/>
     </g>
    </g>
   </g>
   <g id="line2d_14">
    <defs>
     <path d="M -3 3 
L 3 -3 
M -3 -3 
L 3 3 
" id="mc1c4ac4b5a" style="stroke:#1f77b4;"/>
    </defs>
    <g clip-path="url(#p2595df5555)">
     <use style="fill:#1f77b4;stroke:#1f77b4;" x="239.397965" xlink:href="#mc1c4ac4b5a" y="54.6648"/>
     <use style="fill:#1f77b4;stroke:#1f77b4;" x="242.632136" xlink:href="#mc1c4ac4b5a" y="43.779919"/>
     <use style="fill:#1f77b4;stroke:#1f77b4;" x="245.866308" xlink:href="#mc1c4ac4b5a" y="37.367392"/>
     <use style="fill:#1f77b4;stroke:#1f77b4;" x="249.100479" xlink:href="#mc1c4ac4b5a" y="35.176548"/>
     <use style="fill:#1f77b4;stroke:#1f77b4;" x="252.334651" xlink:href="#mc1c4ac4b5a" y="47.897741"/>
     <use style="fill:#1f77b4;stroke:#1f77b4;" x="255.568822" xlink:href="#mc1c4ac4b5a" y="40.975472"/>
     <use style="fill:#1f77b4;stroke:#1f77b4;" x="258.802993" xlink:href="#mc1c4ac4b5a" y="55.325617"/>
     <use style="fill:#1f77b4;stroke:#1f77b4;" x="262.037165" xlink:href="#mc1c4ac4b5a" y="73.153123"/>
     <use style="fill:#1f77b4;stroke:#1f77b4;" x="265.271336" xlink:href="#mc1c4ac4b5a" y="98.123785"/>
     <use style="fill:#1f77b4;stroke:#1f77b4;" x="268.505508" xlink:href="#mc1c4ac4b5a" y="118.791701"/>
    </g>
   </g>
   <g id="line2d_15">
    <defs>
     <path d="M -3 3 
L 3 -3 
M -3 -3 
L 3 3 
" id="ma59cb7bfe8" style="stroke:#ff7f0e;"/>
    </defs>
    <g clip-path="url(#p2595df5555)">
     <use style="fill:#ff7f0e;stroke:#ff7f0e;" x="216.536644" xlink:href="#ma59cb7bfe8" y="111.285309"/>
     <use style="fill:#ff7f0e;stroke:#ff7f0e;" x="223.004987" xlink:href="#ma59cb7bfe8" y="93.175815"/>
     <use style="fill:#ff7f0e;stroke:#ff7f0e;" x="229.47333" xlink:href="#ma59cb7bfe8" y="72.211261"/>
     <use style="fill:#ff7f0e;stroke:#ff7f0e;" x="235.941673" xlink:href="#ma59cb7bfe8" y="61.291213"/>
     <use style="fill:#ff7f0e;stroke:#ff7f0e;" x="242.410016" xlink:href="#ma59cb7bfe8" y="36.882359"/>
     <use style="fill:#ff7f0e;stroke:#ff7f0e;" x="248.878358" xlink:href="#ma59cb7bfe8" y="32.470146"/>
     <use style="fill:#ff7f0e;stroke:#ff7f0e;" x="255.346701" xlink:href="#ma59cb7bfe8" y="50.267514"/>
     <use style="fill:#ff7f0e;stroke:#ff7f0e;" x="261.815044" xlink:href="#ma59cb7bfe8" y="76.278708"/>
     <use style="fill:#ff7f0e;stroke:#ff7f0e;" x="268.283387" xlink:href="#ma59cb7bfe8" y="113.830265"/>
     <use style="fill:#ff7f0e;stroke:#ff7f0e;" x="274.75173" xlink:href="#ma59cb7bfe8" y="131.513644"/>
    </g>
   </g>
   <g id="line2d_16">
    <defs>
     <path d="M -3 3 
L 3 -3 
M -3 -3 
L 3 3 
" id="m395932e64c" style="stroke:#2ca02c;"/>
    </defs>
    <g clip-path="url(#p2595df5555)">
     <use style="fill:#2ca02c;stroke:#2ca02c;" x="170.814003" xlink:href="#m395932e64c" y="155.455465"/>
     <use style="fill:#2ca02c;stroke:#2ca02c;" x="183.750688" xlink:href="#m395932e64c" y="149.037715"/>
     <use style="fill:#2ca02c;stroke:#2ca02c;" x="196.687374" xlink:href="#m395932e64c" y="137.267979"/>
     <use style="fill:#2ca02c;stroke:#2ca02c;" x="209.62406" xlink:href="#m395932e64c" y="120.325512"/>
     <use style="fill:#2ca02c;stroke:#2ca02c;" x="222.560745" xlink:href="#m395932e64c" y="89.715984"/>
     <use style="fill:#2ca02c;stroke:#2ca02c;" x="235.497431" xlink:href="#m395932e64c" y="50.982634"/>
     <use style="fill:#2ca02c;stroke:#2ca02c;" x="248.434117" xlink:href="#m395932e64c" y="29.878693"/>
     <use style="fill:#2ca02c;stroke:#2ca02c;" x="261.370803" xlink:href="#m395932e64c" y="72.317289"/>
     <use style="fill:#2ca02c;stroke:#2ca02c;" x="274.307488" xlink:href="#m395932e64c" y="136.49171"/>
     <use style="fill:#2ca02c;stroke:#2ca02c;" x="287.244174" xlink:href="#m395932e64c" y="161.110738"/>
    </g>
   </g>
   <g id="line2d_17">
    <defs>
     <path d="M -3 3 
L 3 -3 
M -3 -3 
L 3 3 
" id="m84117f096f" style="stroke:#d62728;"/>
    </defs>
    <g clip-path="url(#p2595df5555)">
     <use style="fill:#d62728;stroke:#d62728;" x="79.368719" xlink:href="#m84117f096f" y="171.546831"/>
     <use style="fill:#d62728;stroke:#d62728;" x="105.242091" xlink:href="#m84117f096f" y="169.22995"/>
     <use style="fill:#d62728;stroke:#d62728;" x="131.115462" xlink:href="#m84117f096f" y="166.046552"/>
     <use style="fill:#d62728;stroke:#d62728;" x="156.988834" xlink:href="#m84117f096f" y="160.752724"/>
     <use style="fill:#d62728;stroke:#d62728;" x="182.862205" xlink:href="#m84117f096f" y="147.418886"/>
     <use style="fill:#d62728;stroke:#d62728;" x="208.735576" xlink:href="#m84117f096f" y="120.193197"/>
     <use style="fill:#d62728;stroke:#d62728;" x="234.608948" xlink:href="#m84117f096f" y="56.809994"/>
     <use style="fill:#d62728;stroke:#d62728;" x="260.482319" xlink:href="#m84117f096f" y="63.420477"/>
     <use style="fill:#d62728;stroke:#d62728;" x="286.355691" xlink:href="#m84117f096f" y="156.533775"/>
     <use style="fill:#d62728;stroke:#d62728;" x="312.229062" xlink:href="#m84117f096f" y="173.004408"/>
    </g>
   </g>
   <g id="line2d_18">
    <defs>
     <path d="M -3 3 
L 3 -3 
M -3 -3 
L 3 3 
" id="m5d7330f92a" style="stroke:#9467bd;"/>
    </defs>
    <g clip-path="url(#p2595df5555)">
     <use style="fill:#9467bd;stroke:#9467bd;" x="-1" xlink:href="#m5d7330f92a" y="174.366258"/>
     <use style="fill:#9467bd;stroke:#9467bd;" x="-0.028361" xlink:href="#m5d7330f92a" y="174.346707"/>
     <use style="fill:#9467bd;stroke:#9467bd;" x="51.718382" xlink:href="#m5d7330f92a" y="172.812548"/>
     <use style="fill:#9467bd;stroke:#9467bd;" x="103.465124" xlink:href="#m5d7330f92a" y="168.168096"/>
     <use style="fill:#9467bd;stroke:#9467bd;" x="155.211867" xlink:href="#m5d7330f92a" y="158.673038"/>
     <use style="fill:#9467bd;stroke:#9467bd;" x="206.95861" xlink:href="#m5d7330f92a" y="120.849804"/>
     <use style="fill:#9467bd;stroke:#9467bd;" x="258.705353" xlink:href="#m5d7330f92a" y="57.456613"/>
     <use style="fill:#9467bd;stroke:#9467bd;" x="310.452096" xlink:href="#m5d7330f92a" y="171.933262"/>
     <use style="fill:#9467bd;stroke:#9467bd;" x="362.198839" xlink:href="#m5d7330f92a" y="176.48398"/>
    </g>
   </g>
   <g id="line2d_19">
    <defs>
     <path d="M 0 1.5 
C 0.397805 1.5 0.77937 1.341951 1.06066 1.06066 
C 1.341951 0.77937 1.5 0.397805 1.5 0 
C 1.5 -0.397805 1.341951 -0.77937 1.06066 -1.06066 
C 0.77937 -1.341951 0.397805 -1.5 0 -1.5 
C -0.397805 -1.5 -0.77937 -1.341951 -1.06066 -1.06066 
C -1.341951 -0.77937 -1.5 -0.397805 -1.5 0 
C -1.5 0.397805 -1.341951 0.77937 -1.06066 1.06066 
C -0.77937 1.341951 -0.397805 1.5 0 1.5 
z
" id="m80089aae63" style="stroke:#1f77b4;"/>
    </defs>
    <g clip-path="url(#p2595df5555)">
     <use style="fill:#1f77b4;stroke:#1f77b4;" x="239.397965" xlink:href="#m80089aae63" y="54.001843"/>
     <use style="fill:#1f77b4;stroke:#1f77b4;" x="242.632136" xlink:href="#m80089aae63" y="41.782675"/>
     <use style="fill:#1f77b4;stroke:#1f77b4;" x="245.866308" xlink:href="#m80089aae63" y="39.461737"/>
     <use style="fill:#1f77b4;stroke:#1f77b4;" x="249.100479" xlink:href="#m80089aae63" y="40.716031"/>
     <use style="fill:#1f77b4;stroke:#1f77b4;" x="252.334651" xlink:href="#m80089aae63" y="44.385073"/>
     <use style="fill:#1f77b4;stroke:#1f77b4;" x="255.568822" xlink:href="#m80089aae63" y="48.732964"/>
     <use style="fill:#1f77b4;stroke:#1f77b4;" x="258.802993" xlink:href="#m80089aae63" y="61.126671"/>
     <use style="fill:#1f77b4;stroke:#1f77b4;" x="262.037165" xlink:href="#m80089aae63" y="75.465553"/>
     <use style="fill:#1f77b4;stroke:#1f77b4;" x="265.271336" xlink:href="#m80089aae63" y="97.592309"/>
     <use style="fill:#1f77b4;stroke:#1f77b4;" x="268.505508" xlink:href="#m80089aae63" y="110.96945"/>
    </g>
   </g>
   <g id="line2d_20">
    <defs>
     <path d="M 0 1.5 
C 0.397805 1.5 0.77937 1.341951 1.06066 1.06066 
C 1.341951 0.77937 1.5 0.397805 1.5 0 
C 1.5 -0.397805 1.341951 -0.77937 1.06066 -1.06066 
C 0.77937 -1.341951 0.397805 -1.5 0 -1.5 
C -0.397805 -1.5 -0.77937 -1.341951 -1.06066 -1.06066 
C -1.341951 -0.77937 -1.5 -0.397805 -1.5 0 
C -1.5 0.397805 -1.341951 0.77937 -1.06066 1.06066 
C -0.77937 1.341951 -0.397805 1.5 0 1.5 
z
" id="m9b78ae101e" style="stroke:#ff7f0e;"/>
    </defs>
    <g clip-path="url(#p2595df5555)">
     <use style="fill:#ff7f0e;stroke:#ff7f0e;" x="216.536644" xlink:href="#m9b78ae101e" y="111.932726"/>
     <use style="fill:#ff7f0e;stroke:#ff7f0e;" x="223.004987" xlink:href="#m9b78ae101e" y="95.393326"/>
     <use style="fill:#ff7f0e;stroke:#ff7f0e;" x="229.47333" xlink:href="#m9b78ae101e" y="71.694097"/>
     <use style="fill:#ff7f0e;stroke:#ff7f0e;" x="235.941673" xlink:href="#m9b78ae101e" y="50.427296"/>
     <use style="fill:#ff7f0e;stroke:#ff7f0e;" x="242.410016" xlink:href="#m9b78ae101e" y="41.117139"/>
     <use style="fill:#ff7f0e;stroke:#ff7f0e;" x="248.878358" xlink:href="#m9b78ae101e" y="33.460951"/>
     <use style="fill:#ff7f0e;stroke:#ff7f0e;" x="255.346701" xlink:href="#m9b78ae101e" y="39.850694"/>
     <use style="fill:#ff7f0e;stroke:#ff7f0e;" x="261.815044" xlink:href="#m9b78ae101e" y="75.47671"/>
     <use style="fill:#ff7f0e;stroke:#ff7f0e;" x="268.283387" xlink:href="#m9b78ae101e" y="104.959044"/>
     <use style="fill:#ff7f0e;stroke:#ff7f0e;" x="274.75173" xlink:href="#m9b78ae101e" y="130.937503"/>
    </g>
   </g>
   <g id="line2d_21">
    <defs>
     <path d="M 0 1.5 
C 0.397805 1.5 0.77937 1.341951 1.06066 1.06066 
C 1.341951 0.77937 1.5 0.397805 1.5 0 
C 1.5 -0.397805 1.341951 -0.77937 1.06066 -1.06066 
C 0.77937 -1.341951 0.397805 -1.5 0 -1.5 
C -0.397805 -1.5 -0.77937 -1.341951 -1.06066 -1.06066 
C -1.341951 -0.77937 -1.5 -0.397805 -1.5 0 
C -1.5 0.397805 -1.341951 0.77937 -1.06066 1.06066 
C -0.77937 1.341951 -0.397805 1.5 0 1.5 
z
" id="m2764cf2da8" style="stroke:#2ca02c;"/>
    </defs>
    <g clip-path="url(#p2595df5555)">
     <use style="fill:#2ca02c;stroke:#2ca02c;" x="170.814003" xlink:href="#m2764cf2da8" y="156.383625"/>
     <use style="fill:#2ca02c;stroke:#2ca02c;" x="183.750688" xlink:href="#m2764cf2da8" y="146.219399"/>
     <use style="fill:#2ca02c;stroke:#2ca02c;" x="196.687374" xlink:href="#m2764cf2da8" y="138.068905"/>
     <use style="fill:#2ca02c;stroke:#2ca02c;" x="209.62406" xlink:href="#m2764cf2da8" y="119.875767"/>
     <use style="fill:#2ca02c;stroke:#2ca02c;" x="222.560745" xlink:href="#m2764cf2da8" y="95.767204"/>
     <use style="fill:#2ca02c;stroke:#2ca02c;" x="235.497431" xlink:href="#m2764cf2da8" y="52.06934"/>
     <use style="fill:#2ca02c;stroke:#2ca02c;" x="248.434117" xlink:href="#m2764cf2da8" y="30.402991"/>
     <use style="fill:#2ca02c;stroke:#2ca02c;" x="261.370803" xlink:href="#m2764cf2da8" y="76.415429"/>
     <use style="fill:#2ca02c;stroke:#2ca02c;" x="274.307488" xlink:href="#m2764cf2da8" y="133.270168"/>
     <use style="fill:#2ca02c;stroke:#2ca02c;" x="287.244174" xlink:href="#m2764cf2da8" y="158.481029"/>
    </g>
   </g>
   <g id="line2d_22">
    <defs>
     <path d="M 0 1.5 
C 0.397805 1.5 0.77937 1.341951 1.06066 1.06066 
C 1.341951 0.77937 1.5 0.397805 1.5 0 
C 1.5 -0.397805 1.341951 -0.77937 1.06066 -1.06066 
C 0.77937 -1.341951 0.397805 -1.5 0 -1.5 
C -0.397805 -1.5 -0.77937 -1.341951 -1.06066 -1.06066 
C -1.341951 -0.77937 -1.5 -0.397805 -1.5 0 
C -1.5 0.397805 -1.341951 0.77937 -1.06066 1.06066 
C -0.77937 1.341951 -0.397805 1.5 0 1.5 
z
" id="m5278a58ea8" style="stroke:#d62728;"/>
    </defs>
    <g clip-path="url(#p2595df5555)">
     <use style="fill:#d62728;stroke:#d62728;" x="79.368719" xlink:href="#m5278a58ea8" y="171.292926"/>
     <use style="fill:#d62728;stroke:#d62728;" x="105.242091" xlink:href="#m5278a58ea8" y="168.802171"/>
     <use style="fill:#d62728;stroke:#d62728;" x="131.115462" xlink:href="#m5278a58ea8" y="164.710299"/>
     <use style="fill:#d62728;stroke:#d62728;" x="156.988834" xlink:href="#m5278a58ea8" y="160.001322"/>
     <use style="fill:#d62728;stroke:#d62728;" x="182.862205" xlink:href="#m5278a58ea8" y="145.64723"/>
     <use style="fill:#d62728;stroke:#d62728;" x="208.735576" xlink:href="#m5278a58ea8" y="119.341692"/>
     <use style="fill:#d62728;stroke:#d62728;" x="234.608948" xlink:href="#m5278a58ea8" y="47.337878"/>
     <use style="fill:#d62728;stroke:#d62728;" x="260.482319" xlink:href="#m5278a58ea8" y="69.922679"/>
     <use style="fill:#d62728;stroke:#d62728;" x="286.355691" xlink:href="#m5278a58ea8" y="157.363818"/>
     <use style="fill:#d62728;stroke:#d62728;" x="312.229062" xlink:href="#m5278a58ea8" y="172.554288"/>
    </g>
   </g>
   <g id="line2d_23">
    <defs>
     <path d="M 0 1.5 
C 0.397805 1.5 0.77937 1.341951 1.06066 1.06066 
C 1.341951 0.77937 1.5 0.397805 1.5 0 
C 1.5 -0.397805 1.341951 -0.77937 1.06066 -1.06066 
C 0.77937 -1.341951 0.397805 -1.5 0 -1.5 
C -0.397805 -1.5 -0.77937 -1.341951 -1.06066 -1.06066 
C -1.341951 -0.77937 -1.5 -0.397805 -1.5 0 
C -1.5 0.397805 -1.341951 0.77937 -1.06066 1.06066 
C -0.77937 1.341951 -0.397805 1.5 0 1.5 
z
" id="mb6f97bc9cc" style="stroke:#9467bd;"/>
    </defs>
    <g clip-path="url(#p2595df5555)">
     <use style="fill:#9467bd;stroke:#9467bd;" x="-1" xlink:href="#mb6f97bc9cc" y="174.394527"/>
     <use style="fill:#9467bd;stroke:#9467bd;" x="-0.028361" xlink:href="#mb6f97bc9cc" y="174.373654"/>
     <use style="fill:#9467bd;stroke:#9467bd;" x="51.718382" xlink:href="#mb6f97bc9cc" y="172.697101"/>
     <use style="fill:#9467bd;stroke:#9467bd;" x="103.465124" xlink:href="#mb6f97bc9cc" y="168.968375"/>
     <use style="fill:#9467bd;stroke:#9467bd;" x="155.211867" xlink:href="#mb6f97bc9cc" y="159.466594"/>
     <use style="fill:#9467bd;stroke:#9467bd;" x="206.95861" xlink:href="#mb6f97bc9cc" y="116.804753"/>
     <use style="fill:#9467bd;stroke:#9467bd;" x="258.705353" xlink:href="#mb6f97bc9cc" y="61.423925"/>
     <use style="fill:#9467bd;stroke:#9467bd;" x="310.452096" xlink:href="#mb6f97bc9cc" y="172.928264"/>
     <use style="fill:#9467bd;stroke:#9467bd;" x="362.198839" xlink:href="#mb6f97bc9cc" y="176.502557"/>
    </g>
   </g>
   <g id="patch_3">
    <path d="M 39.91 183.83375 
L 39.91 22.5475 
" style="fill:none;stroke:#000000;stroke-linecap:square;stroke-linejoin:miter;stroke-width:0.6;"/>
   </g>
   <g id="patch_4">
    <path d="M 322.9 183.83375 
L 322.9 22.5475 
" style="fill:none;stroke:#000000;stroke-linecap:square;stroke-linejoin:miter;stroke-width:0.6;"/>
   </g>
   <g id="patch_5">
    <path d="M 39.91 183.83375 
L 322.9 183.83375 
" style="fill:none;stroke:#000000;stroke-linecap:square;stroke-linejoin:miter;stroke-width:0.6;"/>
   </g>
   <g id="patch_6">
    <path d="M 39.91 22.5475 
L 322.9 22.5475 
" style="fill:none;stroke:#000000;stroke-linecap:square;stroke-linejoin:miter;stroke-width:0.6;"/>
   </g>
   <g id="text_16">
    <!-- Comparison general vs. optimized Wolff implementation -->
    <defs>
     <path d="M 61.40625 13.09375 
L 63.296875 11.296875 
Q 54.40625 -1.40625 36 -1.40625 
Q 21.5 -1.40625 12.40625 7.5 
Q 2.796875 16.90625 2.796875 32.5 
Q 2.796875 47.09375 11.796875 57.203125 
Q 21.203125 67.59375 36.09375 67.59375 
Q 42.5 67.59375 48 66.09375 
Q 54.296875 64.296875 54.90625 64.296875 
Q 58.203125 64.296875 59.09375 67.59375 
L 61.09375 67.59375 
L 62 44.90625 
L 59.703125 44.90625 
Q 58.09375 52.09375 54.5 56 
Q 47.40625 63.59375 38.40625 63.59375 
Q 27.296875 63.59375 20.84375 55.4375 
Q 14.40625 47.296875 14.40625 34.09375 
Q 14.40625 18 21.59375 10.203125 
Q 28.296875 3 39.40625 3 
Q 46 3 50.796875 5.296875 
Q 55.59375 7.59375 61.40625 13.09375 
z
" id="STIXGeneral-Regular-67"/>
     <path d="M 47 23.09375 
Q 47 12.59375 40.75 5.796875 
Q 34.5 -1 24.5 -1 
Q 15.296875 -1 9.09375 5.75 
Q 2.90625 12.5 2.90625 22.796875 
Q 2.90625 33.203125 9.09375 39.59375 
Q 15.296875 46 25.40625 46 
Q 34.703125 46 40.84375 39.640625 
Q 47 33.296875 47 23.09375 
z
M 38 20.40625 
Q 38 31.796875 33 38.203125 
Q 29 43.203125 23.5 43.203125 
Q 18.296875 43.203125 15.09375 38.953125 
Q 11.90625 34.703125 11.90625 27.296875 
Q 11.90625 14.5 17.203125 6.796875 
Q 20.59375 1.796875 26.203125 1.796875 
Q 31.703125 1.796875 34.84375 6.75 
Q 38 11.703125 38 20.40625 
z
" id="STIXGeneral-Regular-111"/>
     <path d="M 77.5 0 
L 55.703125 0 
L 55.703125 1.5 
Q 59.90625 1.90625 61.046875 3.25 
Q 62.203125 4.59375 62.203125 9 
L 62.203125 29.59375 
Q 62.203125 35.59375 60.453125 38.1875 
Q 58.703125 40.796875 54.5 40.796875 
Q 51 40.796875 48.546875 39.390625 
Q 46.09375 38 43.796875 34.703125 
L 43.796875 9.5 
Q 43.796875 4.703125 45.25 3.140625 
Q 46.703125 1.59375 51 1.5 
L 51 0 
L 28.59375 0 
L 28.59375 1.5 
Q 33 1.796875 34.203125 2.9375 
Q 35.40625 4.09375 35.40625 8.59375 
L 35.40625 29.703125 
Q 35.40625 40.796875 28.90625 40.796875 
Q 26.09375 40.796875 22.9375 39.546875 
Q 19.796875 38.296875 18.296875 36.5 
Q 17 35 17 34.796875 
L 17 7 
Q 17 3.796875 18.390625 2.75 
Q 19.796875 1.703125 23.796875 1.5 
L 23.796875 0 
L 1.59375 0 
L 1.59375 1.5 
Q 5.796875 1.59375 7.1875 3.046875 
Q 8.59375 4.5 8.59375 8.796875 
L 8.59375 33.59375 
Q 8.59375 37.296875 7.796875 38.75 
Q 7 40.203125 5.09375 40.203125 
Q 3.59375 40.203125 1.90625 39.796875 
L 1.90625 41.5 
Q 8.703125 43.40625 15.796875 46 
L 16.59375 45.703125 
L 16.59375 38.296875 
L 16.796875 38.296875 
Q 21.296875 43 24.75 44.5 
Q 28.203125 46 32.09375 46 
Q 40 46 42.703125 37.59375 
Q 50.5 46 59 46 
Q 70.59375 46 70.59375 28 
L 70.59375 7.703125 
Q 70.59375 4.40625 71.59375 3.15625 
Q 72.59375 1.90625 74.90625 1.703125 
L 77.5 1.5 
z
" id="STIXGeneral-Regular-109"/>
     <path d="M 15.90625 45.796875 
L 15.90625 38.09375 
Q 22.203125 46 30.296875 46 
Q 37.59375 46 42.296875 40 
Q 47 34 47 24.703125 
Q 47 13.796875 40.953125 6.390625 
Q 34.90625 -1 26 -1 
Q 22.90625 -1 20.75 -0.09375 
Q 18.59375 0.796875 15.90625 3.296875 
L 15.90625 -12.40625 
Q 15.90625 -17.09375 17.5 -18.4375 
Q 19.09375 -19.796875 24.703125 -19.90625 
L 24.703125 -21.703125 
L 0.5 -21.703125 
L 0.5 -20 
Q 4.90625 -19.59375 6.203125 -18.296875 
Q 7.5 -17 7.5 -13.09375 
L 7.5 33.703125 
Q 7.5 37.203125 6.703125 38.296875 
Q 5.90625 39.40625 3.40625 39.40625 
Q 1.796875 39.40625 0.90625 39.296875 
L 0.90625 40.90625 
Q 7.90625 43 15.296875 46 
z
M 15.90625 33.40625 
L 15.90625 8.796875 
Q 15.90625 6.59375 19.34375 4.390625 
Q 22.796875 2.203125 26.296875 2.203125 
Q 31.703125 2.203125 35.046875 7.296875 
Q 38.40625 12.40625 38.40625 20.703125 
Q 38.40625 29.5 35.046875 34.75 
Q 31.703125 40 26.09375 40 
Q 22.59375 40 19.25 37.796875 
Q 15.90625 35.59375 15.90625 33.40625 
z
" id="STIXGeneral-Regular-112"/>
     <path d="M 44.203125 6.59375 
L 44.203125 3.796875 
Q 40.40625 -1 35.203125 -1 
Q 29.5 -1 28.796875 6.296875 
L 28.703125 6.296875 
Q 22.296875 -1 14.203125 -1 
Q 9.5 -1 6.59375 1.75 
Q 3.703125 4.5 3.703125 9.40625 
Q 3.703125 16.40625 10.703125 21.09375 
Q 15.5 24.296875 28.703125 29.203125 
L 28.703125 34.59375 
Q 28.703125 39.09375 26.546875 41.34375 
Q 24.40625 43.59375 20.90625 43.59375 
Q 17.90625 43.59375 15.90625 42.140625 
Q 13.90625 40.703125 13.90625 38.703125 
Q 13.90625 37.796875 14.203125 36.6875 
Q 14.5 35.59375 14.5 34.5 
Q 14.5 33 13.140625 31.703125 
Q 11.796875 30.40625 9.90625 30.40625 
Q 8.203125 30.40625 6.890625 31.703125 
Q 5.59375 33 5.59375 35 
Q 5.59375 39.796875 10.703125 43 
Q 15.40625 46 22.203125 46 
Q 30.296875 46 34 41.5 
Q 35.796875 39.40625 36.296875 37.25 
Q 36.796875 35.09375 36.796875 30.40625 
L 36.796875 11.296875 
Q 36.796875 4.703125 39.90625 4.703125 
Q 41.90625 4.703125 44.203125 6.59375 
z
M 28.703125 12.703125 
L 28.703125 26.796875 
Q 19.5 23.59375 15.90625 20.203125 
Q 12.5 17.09375 12.5 12.5 
Q 12.5 8.703125 14.390625 6.75 
Q 16.296875 4.796875 19.40625 4.796875 
Q 22.703125 4.796875 25.203125 6.40625 
Q 27.296875 7.90625 28 9.203125 
Q 28.703125 10.5 28.703125 12.703125 
z
" id="STIXGeneral-Regular-97"/>
     <path d="M 16 45.796875 
L 16 36.59375 
Q 19.796875 42 22.34375 44 
Q 24.90625 46 28 46 
Q 30.59375 46 32.046875 44.59375 
Q 33.5 43.203125 33.5 40.703125 
Q 33.5 38.59375 32.453125 37.390625 
Q 31.40625 36.203125 29.59375 36.203125 
Q 27.703125 36.203125 25.59375 38.203125 
Q 24 39.703125 23 39.703125 
Q 20.90625 39.703125 18.453125 36.796875 
Q 16 33.90625 16 31.5 
L 16 9 
Q 16 4.703125 17.703125 3.203125 
Q 19.40625 1.703125 24.5 1.5 
L 24.5 0 
L 0.5 0 
L 0.5 1.5 
Q 5.296875 2.40625 6.4375 3.5 
Q 7.59375 4.59375 7.59375 8.40625 
L 7.59375 33.40625 
Q 7.59375 36.703125 6.84375 38.046875 
Q 6.09375 39.40625 4.203125 39.40625 
Q 2.59375 39.40625 0.703125 39 
L 0.703125 40.59375 
Q 7 42.59375 15.5 46 
z
" id="STIXGeneral-Regular-114"/>
     <path d="M 18 63.203125 
Q 18 61 16.5 59.546875 
Q 15 58.09375 12.796875 58.09375 
Q 10.703125 58.09375 9.25 59.546875 
Q 7.796875 61 7.796875 63.203125 
Q 7.796875 65.296875 9.296875 66.796875 
Q 10.796875 68.296875 12.90625 68.296875 
Q 15.09375 68.296875 16.546875 66.796875 
Q 18 65.296875 18 63.203125 
z
M 25.296875 0 
L 1.59375 0 
L 1.59375 1.5 
Q 6.796875 1.796875 8.140625 3.296875 
Q 9.5 4.796875 9.5 10.40625 
L 9.5 33.09375 
Q 9.5 36.59375 8.796875 38 
Q 8.09375 39.40625 6.203125 39.40625 
Q 3.796875 39.40625 2 38.90625 
L 2 40.5 
L 17.5 46 
L 17.90625 45.59375 
L 17.90625 10.5 
Q 17.90625 4.90625 19.15625 3.40625 
Q 20.40625 1.90625 25.296875 1.5 
z
" id="STIXGeneral-Regular-105"/>
     <path d="M 15.59375 30.09375 
L 26 23.796875 
Q 31 20.796875 32.890625 18.1875 
Q 34.796875 15.59375 34.796875 11.5 
Q 34.796875 6.5 30.640625 2.75 
Q 26.5 -1 20.796875 -1 
Q 16.09375 -1 13.5 -0.09375 
Q 10.796875 0.796875 8.90625 0.796875 
Q 7.203125 0.796875 6.5 -0.40625 
L 5.203125 -0.40625 
L 5.203125 15.296875 
L 6.796875 15.296875 
Q 8.40625 8 11.40625 4.59375 
Q 14.40625 1.203125 19.5 1.203125 
Q 23.203125 1.203125 25.5 3.296875 
Q 27.796875 5.40625 27.796875 8.59375 
Q 27.796875 13.203125 22.5 16.09375 
L 17.09375 19.09375 
Q 5.09375 25.796875 5.09375 33.59375 
Q 5.09375 39.40625 8.84375 42.65625 
Q 12.59375 45.90625 18.90625 45.90625 
Q 23.296875 45.90625 25.59375 44.796875 
Q 27.40625 44 28.40625 44 
Q 29.09375 44 30 45 
L 31.09375 45 
L 31.59375 31.40625 
L 30.09375 31.40625 
Q 28.40625 38.203125 25.84375 40.953125 
Q 23.296875 43.703125 18.796875 43.703125 
Q 15.40625 43.703125 13.34375 42 
Q 11.296875 40.296875 11.296875 36.90625 
Q 11.296875 35.203125 12.4375 33.25 
Q 13.59375 31.296875 15.59375 30.09375 
z
" id="STIXGeneral-Regular-115"/>
     <path d="M 48.5 0 
L 27.703125 0 
L 27.796875 1.5 
Q 31.5 1.796875 32.75 3.640625 
Q 34 5.5 34 10.5 
L 34 30.40625 
Q 34 40.5 26.703125 40.5 
Q 24.203125 40.5 22 39.296875 
Q 19.796875 38.09375 16.40625 34.796875 
L 16.40625 7.203125 
Q 16.40625 4.203125 17.75 3 
Q 19.09375 1.796875 22.90625 1.5 
L 22.90625 0 
L 1.796875 0 
L 1.796875 1.5 
Q 5.59375 1.796875 6.796875 3.34375 
Q 8 4.90625 8 9.40625 
L 8 33.703125 
Q 8 37.40625 7.296875 38.796875 
Q 6.59375 40.203125 4.5 40.203125 
Q 2.5 40.203125 1.59375 39.796875 
L 1.59375 41.5 
Q 8.59375 43.5 15.296875 46 
L 16.09375 45.703125 
L 16.09375 37.90625 
L 16.203125 37.90625 
Q 23.296875 46 30.59375 46 
Q 36.296875 46 39.34375 42 
Q 42.40625 38 42.40625 30.59375 
L 42.40625 8.5 
Q 42.40625 4.5 43.59375 3.203125 
Q 44.796875 1.90625 48.5 1.5 
z
" id="STIXGeneral-Regular-110"/>
     <path id="STIXGeneral-Regular-32"/>
     <path d="M 47 38.796875 
L 38.703125 38.796875 
Q 40.59375 34.5 40.59375 30.40625 
Q 40.59375 22.703125 35.390625 18.796875 
Q 30.203125 14.90625 25 14.90625 
Q 23.90625 14.90625 21.203125 15.203125 
L 19.296875 15.40625 
Q 17.296875 14.796875 15.296875 12.6875 
Q 13.296875 10.59375 13.296875 9.09375 
Q 13.296875 6.796875 21.09375 6.40625 
L 34 5.796875 
Q 39.5 5.59375 42.796875 2.6875 
Q 46.09375 -0.203125 46.09375 -4.90625 
Q 46.09375 -10.703125 40.09375 -15.40625 
Q 31.796875 -21.796875 20.09375 -21.796875 
Q 12.90625 -21.796875 7.84375 -18.9375 
Q 2.796875 -16.09375 2.796875 -12.09375 
Q 2.796875 -9.296875 5 -6.546875 
Q 7.203125 -3.796875 12.59375 0.09375 
Q 9.40625 1.59375 8.34375 2.6875 
Q 7.296875 3.796875 7.296875 5.40625 
Q 7.296875 8.296875 11.90625 12.296875 
Q 14.203125 14.296875 16.203125 16.296875 
Q 11.203125 18.796875 9.046875 21.890625 
Q 6.90625 25 6.90625 29.703125 
Q 6.90625 36.5 11.75 41.25 
Q 16.59375 46 23.59375 46 
Q 27.59375 46 31.59375 44.5 
L 33.796875 43.703125 
Q 36.703125 42.703125 39.296875 42.703125 
L 47 42.703125 
z
M 15.203125 33.796875 
L 15.203125 33.5 
Q 15.203125 26.296875 18.046875 21.84375 
Q 20.90625 17.40625 25.5 17.40625 
Q 28.90625 17.40625 30.90625 19.84375 
Q 32.90625 22.296875 32.90625 26.40625 
Q 32.90625 33 29.90625 38.5 
Q 27.40625 43.203125 22.59375 43.203125 
Q 19.09375 43.203125 17.140625 40.703125 
Q 15.203125 38.203125 15.203125 33.796875 
z
M 43.296875 -6.40625 
Q 43.296875 -3.59375 40.546875 -2.546875 
Q 37.796875 -1.5 30.90625 -1.5 
Q 21 -1.5 14.703125 -0.203125 
Q 11.703125 -3.796875 10.75 -5.4375 
Q 9.796875 -7.09375 9.796875 -8.796875 
Q 9.796875 -12.09375 13.75 -14.09375 
Q 17.703125 -16.09375 24.296875 -16.09375 
Q 32.796875 -16.09375 38.046875 -13.4375 
Q 43.296875 -10.796875 43.296875 -6.40625 
z
" id="STIXGeneral-Regular-103"/>
     <path d="M 40.796875 16.40625 
L 42.40625 15.703125 
Q 36.40625 -1 21.5 -1 
Q 12.703125 -1 7.59375 5.140625 
Q 2.5 11.296875 2.5 21.703125 
Q 2.5 32.40625 8.203125 39.203125 
Q 13.90625 46 23.203125 46 
Q 32.203125 46 37.09375 39.09375 
Q 40 35.09375 40.5 27.703125 
L 9.703125 27.703125 
Q 10.09375 21.40625 10.9375 18.09375 
Q 11.796875 14.796875 14.296875 11.40625 
Q 18.5 5.90625 25.40625 5.90625 
Q 30.296875 5.90625 33.640625 8.296875 
Q 37 10.703125 40.796875 16.40625 
z
M 9.90625 30.90625 
L 30.296875 30.90625 
Q 29.40625 37.203125 27.34375 39.796875 
Q 25.296875 42.40625 20.5 42.40625 
Q 16.296875 42.40625 13.5 39.453125 
Q 10.703125 36.5 9.90625 30.90625 
z
" id="STIXGeneral-Regular-101"/>
     <path d="M 25.703125 0 
L 2.09375 0 
L 2.09375 1.5 
Q 6.796875 1.90625 8.296875 3.453125 
Q 9.796875 5 9.796875 9.203125 
L 9.796875 56.09375 
Q 9.796875 59.703125 8.890625 61.09375 
Q 8 62.5 5.59375 62.5 
Q 3.5 62.5 1.90625 62.296875 
L 1.90625 63.90625 
Q 11.40625 66.203125 17.703125 68.296875 
L 18.203125 67.90625 
L 18.203125 8.703125 
Q 18.203125 4.5 19.59375 3.140625 
Q 21 1.796875 25.703125 1.5 
z
" id="STIXGeneral-Regular-108"/>
     <path d="M 47.703125 45 
L 47.703125 43.5 
Q 45.40625 43.296875 44.296875 42 
Q 43.203125 40.703125 41.203125 35.703125 
L 28.40625 3.59375 
Q 26.40625 -1.40625 25.59375 -1.40625 
Q 24.796875 -1.40625 23.796875 1.203125 
Q 23.59375 1.5 23.390625 2.203125 
Q 23.203125 2.90625 23 3.296875 
L 11 32 
Q 7.796875 39.59375 6.296875 41.4375 
Q 4.796875 43.296875 1.90625 43.5 
L 1.90625 45 
L 21.5 45 
L 21.5 43.5 
Q 18.90625 43.296875 17.90625 42.6875 
Q 16.90625 42.09375 16.90625 40.796875 
Q 16.90625 39.203125 17.796875 37 
L 28 11.40625 
L 37.90625 37.296875 
Q 38.5 38.796875 38.5 40.296875 
Q 38.5 43.09375 33.796875 43.5 
L 33.796875 45 
z
" id="STIXGeneral-Regular-118"/>
     <path d="M 26.59375 7.703125 
L 27.90625 6.59375 
Q 23.09375 -1 15.796875 -1 
Q 7 -1 7 11.703125 
L 7 41.796875 
L 1.703125 41.796875 
Q 1.296875 42.09375 1.296875 42.5 
Q 1.296875 43.296875 3 44.40625 
Q 6.796875 46.59375 12.703125 55.09375 
Q 12.90625 55.40625 13.65625 56.34375 
Q 14.40625 57.296875 14.703125 57.90625 
Q 15.40625 57.90625 15.40625 56.59375 
L 15.40625 45 
L 25.5 45 
L 25.5 41.796875 
L 15.40625 41.796875 
L 15.40625 13.203125 
Q 15.40625 8.40625 16.59375 6.296875 
Q 17.796875 4.203125 20.59375 4.203125 
Q 23.59375 4.203125 26.59375 7.703125 
z
" id="STIXGeneral-Regular-116"/>
     <path d="M 41.796875 13.59375 
L 40.296875 0 
L 2.703125 0 
L 2.703125 1.5 
L 29.296875 42 
L 15.796875 42 
Q 11.09375 42 9.4375 40.34375 
Q 7.796875 38.703125 7.09375 33.203125 
L 5.296875 33.203125 
L 5.703125 45 
L 40.296875 45 
L 40.296875 43.5 
L 13.40625 3 
L 26.703125 3 
Q 35.09375 3 37.296875 5.703125 
Q 38.703125 7.40625 40 14 
z
" id="STIXGeneral-Regular-122"/>
     <path d="M 49.09375 4.203125 
L 34.40625 -1 
L 34 -0.703125 
L 34 5.703125 
Q 29.203125 -1 21.203125 -1 
Q 12.90625 -1 7.796875 4.953125 
Q 2.703125 10.90625 2.703125 20.5 
Q 2.703125 31.09375 8.796875 38.546875 
Q 14.90625 46 23.5 46 
Q 28.90625 46 34 41.703125 
L 34 57.296875 
Q 34 60.40625 33.09375 61.40625 
Q 32.203125 62.40625 29.40625 62.40625 
Q 28 62.40625 27.203125 62.296875 
L 27.203125 63.90625 
Q 36.296875 66.296875 41.90625 68.296875 
L 42.40625 68.09375 
L 42.40625 11.40625 
Q 42.40625 7.90625 43.25 6.796875 
Q 44.09375 5.703125 46.796875 5.703125 
Q 47.40625 5.703125 49.09375 5.796875 
z
M 34 10.203125 
L 34 33.203125 
Q 34 37.203125 30.953125 40.203125 
Q 27.90625 43.203125 23.796875 43.203125 
Q 18.09375 43.203125 14.6875 38.09375 
Q 11.296875 33 11.296875 24.5 
Q 11.296875 15.296875 15.046875 9.75 
Q 18.796875 4.203125 25.09375 4.203125 
Q 29.796875 4.203125 32.5 7.40625 
Q 34 9.09375 34 10.203125 
z
" id="STIXGeneral-Regular-100"/>
     <path d="M 93.203125 66.203125 
L 93.203125 64.296875 
Q 89.203125 63.5 87.75 62.34375 
Q 86.296875 61.203125 84.90625 57.296875 
Q 73.5 26.703125 64.5 -1.09375 
L 63 -1.09375 
Q 56.90625 15.796875 47 41.203125 
L 31.59375 -1.09375 
L 30.09375 -1.09375 
Q 26.703125 9 19.953125 27.390625 
Q 13.203125 45.796875 10.90625 52.296875 
Q 8.40625 59.5 6.34375 61.84375 
Q 4.296875 64.203125 0.5 64.296875 
L 0.5 66.203125 
L 24.90625 66.203125 
L 24.90625 64.296875 
Q 21.203125 64.203125 19.84375 63.5 
Q 18.5 62.796875 18.5 61.203125 
Q 18.5 59.5 19.59375 56.5 
L 34 18.90625 
L 44.40625 47.203125 
L 41.59375 54.703125 
Q 39.203125 61.203125 37.5 62.703125 
Q 35.796875 64.203125 31.40625 64.296875 
L 31.40625 66.203125 
L 57.90625 66.203125 
L 57.90625 64.296875 
Q 50.203125 64.09375 50.203125 60.796875 
Q 50.203125 59.5 51.90625 55 
L 66.203125 18.59375 
L 78.796875 52.5 
Q 80.5 57.296875 80.5 60.203125 
Q 80.5 64.203125 73.5 64.296875 
L 73.5 66.203125 
z
" id="STIXGeneral-Regular-87"/>
     <path d="M 2.09375 45 
L 10.296875 45 
Q 10.40625 51 11.09375 54.34375 
Q 11.796875 57.703125 13.796875 61.09375 
Q 18 68.296875 27.90625 68.296875 
Q 32.40625 68.296875 35.34375 66.546875 
Q 38.296875 64.796875 38.296875 62.09375 
Q 38.296875 60.40625 37.09375 59.203125 
Q 35.90625 58 34.09375 58 
Q 31.703125 58 29.59375 61.59375 
Q 27.203125 65.5 24.296875 65.5 
Q 18.703125 65.5 18.703125 56.59375 
L 18.703125 45 
L 30.90625 45 
L 30.90625 41.796875 
L 18.703125 41.796875 
L 18.703125 10.40625 
Q 18.703125 4.796875 20.296875 3.25 
Q 21.90625 1.703125 28 1.5 
L 28 0 
L 2 0 
L 2 1.5 
Q 7.40625 1.796875 8.84375 3.34375 
Q 10.296875 4.90625 10.296875 10.40625 
L 10.296875 41.796875 
L 2.09375 41.796875 
z
" id="STIXGeneral-Regular-102"/>
    </defs>
    <g transform="translate(78.412656 7.209719)scale(0.09 -0.09)">
     <use xlink:href="#STIXGeneral-Regular-67"/>
     <use x="66.699997" xlink:href="#STIXGeneral-Regular-111"/>
     <use x="116.699982" xlink:href="#STIXGeneral-Regular-109"/>
     <use x="194.499969" xlink:href="#STIXGeneral-Regular-112"/>
     <use x="244.499954" xlink:href="#STIXGeneral-Regular-97"/>
     <use x="288.899948" xlink:href="#STIXGeneral-Regular-114"/>
     <use x="322.199936" xlink:href="#STIXGeneral-Regular-105"/>
     <use x="349.999924" xlink:href="#STIXGeneral-Regular-115"/>
     <use x="388.899918" xlink:href="#STIXGeneral-Regular-111"/>
     <use x="438.899902" xlink:href="#STIXGeneral-Regular-110"/>
     <use x="488.899887" xlink:href="#STIXGeneral-Regular-32"/>
     <use x="513.899872" xlink:href="#STIXGeneral-Regular-103"/>
     <use x="563.899857" xlink:href="#STIXGeneral-Regular-101"/>
     <use x="608.29985" xlink:href="#STIXGeneral-Regular-110"/>
     <use x="658.299835" xlink:href="#STIXGeneral-Regular-101"/>
     <use x="702.699829" xlink:href="#STIXGeneral-Regular-114"/>
     <use x="735.999817" xlink:href="#STIXGeneral-Regular-97"/>
     <use x="780.399811" xlink:href="#STIXGeneral-Regular-108"/>
     <use x="808.199799" xlink:href="#STIXGeneral-Regular-32"/>
     <use x="833.199783" xlink:href="#STIXGeneral-Regular-118"/>
     <use x="883.199768" xlink:href="#STIXGeneral-Regular-115"/>
     <use x="922.099762" xlink:href="#STIXGeneral-Regular-46"/>
     <use x="947.099747" xlink:href="#STIXGeneral-Regular-32"/>
     <use x="972.099731" xlink:href="#STIXGeneral-Regular-111"/>
     <use x="1022.099716" xlink:href="#STIXGeneral-Regular-112"/>
     <use x="1072.099701" xlink:href="#STIXGeneral-Regular-116"/>
     <use x="1099.899689" xlink:href="#STIXGeneral-Regular-105"/>
     <use x="1127.699677" xlink:href="#STIXGeneral-Regular-109"/>
     <use x="1205.499664" xlink:href="#STIXGeneral-Regular-105"/>
     <use x="1233.299652" xlink:href="#STIXGeneral-Regular-122"/>
     <use x="1277.699646" xlink:href="#STIXGeneral-Regular-101"/>
     <use x="1322.09964" xlink:href="#STIXGeneral-Regular-100"/>
     <use x="1372.099625" xlink:href="#STIXGeneral-Regular-32"/>
     <use x="1397.099609" xlink:href="#STIXGeneral-Regular-87"/>
     <use x="1491.499603" xlink:href="#STIXGeneral-Regular-111"/>
     <use x="1541.499588" xlink:href="#STIXGeneral-Regular-108"/>
     <use x="1569.299576" xlink:href="#STIXGeneral-Regular-102"/>
     <use x="1602.599564" xlink:href="#STIXGeneral-Regular-102"/>
     <use x="1635.899551" xlink:href="#STIXGeneral-Regular-32"/>
     <use x="1660.899536" xlink:href="#STIXGeneral-Regular-105"/>
     <use x="1688.699524" xlink:href="#STIXGeneral-Regular-109"/>
     <use x="1766.499512" xlink:href="#STIXGeneral-Regular-112"/>
     <use x="1816.499496" xlink:href="#STIXGeneral-Regular-108"/>
     <use x="1844.299484" xlink:href="#STIXGeneral-Regular-101"/>
     <use x="1888.699478" xlink:href="#STIXGeneral-Regular-109"/>
     <use x="1966.499466" xlink:href="#STIXGeneral-Regular-101"/>
     <use x="2010.89946" xlink:href="#STIXGeneral-Regular-110"/>
     <use x="2060.899445" xlink:href="#STIXGeneral-Regular-116"/>
     <use x="2088.699432" xlink:href="#STIXGeneral-Regular-97"/>
     <use x="2133.099426" xlink:href="#STIXGeneral-Regular-116"/>
     <use x="2160.899414" xlink:href="#STIXGeneral-Regular-105"/>
     <use x="2188.699402" xlink:href="#STIXGeneral-Regular-111"/>
     <use x="2238.699387" xlink:href="#STIXGeneral-Regular-110"/>
    </g>
    <!--  2D Ising model at criticality -->
    <defs>
     <path d="M 1.59375 66.203125 
L 28.59375 66.203125 
Q 48.09375 66.203125 58.59375 57.09375 
Q 68.5 48.59375 68.5 33.40625 
Q 68.5 15.09375 54.90625 6.40625 
Q 45 0 29.703125 0 
L 1.59375 0 
L 1.59375 1.90625 
Q 7.40625 2.296875 8.90625 3.9375 
Q 10.40625 5.59375 10.40625 11.5 
L 10.40625 55 
Q 10.40625 60.796875 8.90625 62.34375 
Q 7.40625 63.90625 1.59375 64.296875 
z
M 20.59375 58.296875 
L 20.59375 8.40625 
Q 20.59375 5.703125 21.546875 4.703125 
Q 22.5 3.703125 25.40625 3.703125 
Q 33.203125 3.703125 38 4.796875 
Q 42.796875 5.90625 47.203125 8.90625 
Q 57.59375 15.90625 57.59375 32.796875 
Q 57.59375 47.296875 48.09375 55.59375 
Q 43.796875 59.40625 38.6875 60.953125 
Q 33.59375 62.5 25.90625 62.5 
Q 23 62.5 21.796875 61.59375 
Q 20.59375 60.703125 20.59375 58.296875 
z
" id="STIXGeneral-Regular-68"/>
     <path d="M 31.5 0 
L 1.796875 0 
L 1.796875 1.90625 
Q 8.09375 2.09375 9.796875 3.75 
Q 11.5 5.40625 11.5 11.203125 
L 11.5 55.09375 
Q 11.5 60.90625 9.890625 62.40625 
Q 8.296875 63.90625 1.796875 64.296875 
L 1.796875 66.203125 
L 31.5 66.203125 
L 31.5 64.296875 
Q 25.203125 64 23.453125 62.390625 
Q 21.703125 60.796875 21.703125 55.09375 
L 21.703125 11.203125 
Q 21.703125 5.59375 23.5 3.84375 
Q 25.296875 2.09375 31.5 1.90625 
z
" id="STIXGeneral-Regular-73"/>
     <path d="M 39.796875 15.59375 
L 41.203125 14.703125 
Q 36.90625 6.296875 33 3.203125 
Q 27.90625 -1 21.5 -1 
Q 13.203125 -1 7.84375 5.25 
Q 2.5 11.5 2.5 21.203125 
Q 2.5 33.90625 10.90625 40.90625 
Q 17.09375 46 24.40625 46 
Q 30.703125 46 35.25 42.953125 
Q 39.796875 39.90625 39.796875 35.703125 
Q 39.796875 34 38.390625 32.75 
Q 37 31.5 35.09375 31.5 
Q 31.59375 31.5 30.296875 36.09375 
L 29.703125 38.296875 
Q 28.90625 41.09375 27.703125 42.09375 
Q 26.5 43.09375 23.796875 43.09375 
Q 17.703125 43.09375 13.953125 38.296875 
Q 10.203125 33.5 10.203125 25.703125 
Q 10.203125 17.09375 14.5 11.640625 
Q 18.796875 6.203125 25.703125 6.203125 
Q 30 6.203125 33.09375 8.25 
Q 36.203125 10.296875 39.796875 15.59375 
z
" id="STIXGeneral-Regular-99"/>
     <path d="M 47.5 45 
L 47.5 43.5 
Q 45.703125 43.296875 44.59375 42.1875 
Q 43.5 41.09375 42.5 38.40625 
L 27.5 -2.5 
Q 23.59375 -13.09375 19.640625 -17.4375 
Q 15.703125 -21.796875 10 -21.796875 
Q 6.796875 -21.796875 4.890625 -20.140625 
Q 3 -18.5 3 -16 
Q 3 -14.09375 4.25 -12.75 
Q 5.5 -11.40625 7.296875 -11.40625 
Q 10.203125 -11.40625 12.5 -12.703125 
Q 13.796875 -13.40625 15.09375 -13.40625 
Q 17.203125 -13.40625 20.09375 -9 
Q 21.5 -7 22.796875 -3.296875 
Q 24.09375 0.40625 24.09375 1.796875 
Q 24.09375 3.09375 19.90625 11.90625 
L 6.703125 40.09375 
Q 5.40625 43 1.40625 43.59375 
L 1.40625 45 
L 21.90625 45 
L 21.90625 43.5 
Q 18.703125 43.40625 17.453125 42.796875 
Q 16.203125 42.203125 16.203125 40.796875 
Q 16.203125 39.703125 17.5 36.703125 
L 28.703125 11.703125 
L 38.40625 39.296875 
Q 38.796875 40.203125 38.796875 41.09375 
Q 38.796875 43.5 34.203125 43.5 
L 34.203125 45 
z
" id="STIXGeneral-Regular-121"/>
    </defs>
    <g transform="translate(129.533359 16.5475)scale(0.09 -0.09)">
     <use xlink:href="#STIXGeneral-Regular-32"/>
     <use x="24.999985" xlink:href="#STIXGeneral-Regular-50"/>
     <use x="74.999969" xlink:href="#STIXGeneral-Regular-68"/>
     <use x="147.199951" xlink:href="#STIXGeneral-Regular-32"/>
     <use x="172.199936" xlink:href="#STIXGeneral-Regular-73"/>
     <use x="205.499924" xlink:href="#STIXGeneral-Regular-115"/>
     <use x="244.399918" xlink:href="#STIXGeneral-Regular-105"/>
     <use x="272.199905" xlink:href="#STIXGeneral-Regular-110"/>
     <use x="322.19989" xlink:href="#STIXGeneral-Regular-103"/>
     <use x="372.199875" xlink:href="#STIXGeneral-Regular-32"/>
     <use x="397.19986" xlink:href="#STIXGeneral-Regular-109"/>
     <use x="474.999847" xlink:href="#STIXGeneral-Regular-111"/>
     <use x="524.999832" xlink:href="#STIXGeneral-Regular-100"/>
     <use x="574.999817" xlink:href="#STIXGeneral-Regular-101"/>
     <use x="619.399811" xlink:href="#STIXGeneral-Regular-108"/>
     <use x="647.199799" xlink:href="#STIXGeneral-Regular-32"/>
     <use x="672.199783" xlink:href="#STIXGeneral-Regular-97"/>
     <use x="716.599777" xlink:href="#STIXGeneral-Regular-116"/>
     <use x="744.399765" xlink:href="#STIXGeneral-Regular-32"/>
     <use x="769.39975" xlink:href="#STIXGeneral-Regular-99"/>
     <use x="813.799744" xlink:href="#STIXGeneral-Regular-114"/>
     <use x="847.099731" xlink:href="#STIXGeneral-Regular-105"/>
     <use x="874.899719" xlink:href="#STIXGeneral-Regular-116"/>
     <use x="902.699707" xlink:href="#STIXGeneral-Regular-105"/>
     <use x="930.499695" xlink:href="#STIXGeneral-Regular-99"/>
     <use x="974.899689" xlink:href="#STIXGeneral-Regular-97"/>
     <use x="1019.299683" xlink:href="#STIXGeneral-Regular-108"/>
     <use x="1047.09967" xlink:href="#STIXGeneral-Regular-105"/>
     <use x="1074.899658" xlink:href="#STIXGeneral-Regular-116"/>
     <use x="1102.699646" xlink:href="#STIXGeneral-Regular-121"/>
    </g>
   </g>
   <g id="legend_1">
    <g id="line2d_24"/>
    <g id="line2d_25">
     <g>
      <use style="fill:#1f77b4;stroke:#1f77b4;" x="55.11" xlink:href="#mc1c4ac4b5a" y="32.5475"/>
     </g>
    </g>
    <g id="text_17">
     <!-- $L=$8 -->
     <defs>
      <path d="M 63.703125 32 
L 4.796875 32 
L 4.796875 38.59375 
L 63.703125 38.59375 
z
M 63.703125 12 
L 4.796875 12 
L 4.796875 18.59375 
L 63.703125 18.59375 
z
" id="STIXGeneral-Regular-61"/>
      <path d="M 44.5 15.5 
Q 44.5 7.796875 39.140625 3.1875 
Q 33.796875 -1.40625 24.796875 -1.40625 
Q 16.40625 -1.40625 11 3.1875 
Q 5.59375 7.796875 5.59375 14.90625 
Q 5.59375 20.203125 8.1875 23.953125 
Q 10.796875 27.703125 18.59375 33.203125 
Q 11.09375 39.40625 8.640625 43.203125 
Q 6.203125 47 6.203125 52 
Q 6.203125 59.09375 11.640625 63.34375 
Q 17.09375 67.59375 25.59375 67.59375 
Q 32.90625 67.59375 37.65625 63.4375 
Q 42.40625 59.296875 42.40625 53.296875 
Q 42.40625 47.796875 39.546875 44.5 
Q 36.703125 41.203125 29 37.09375 
Q 38 31.09375 41.25 26.390625 
Q 44.5 21.703125 44.5 15.5 
z
M 35.5 53.296875 
Q 35.5 58.5 32.59375 61.640625 
Q 29.703125 64.796875 24.59375 64.796875 
Q 19.5 64.796875 16.546875 62.140625 
Q 13.59375 59.5 13.59375 54.890625 
Q 13.59375 50.296875 16.546875 46.546875 
Q 19.5 42.796875 26.09375 38.90625 
Q 31.203125 41.90625 33.34375 45.25 
Q 35.5 48.59375 35.5 53.296875 
z
M 27.09375 27.203125 
L 21.203125 31.203125 
Q 16.796875 27.59375 15 24.140625 
Q 13.203125 20.703125 13.203125 15.796875 
Q 13.203125 9 16.640625 5.203125 
Q 20.09375 1.40625 25.90625 1.40625 
Q 30.796875 1.40625 33.84375 4.453125 
Q 36.90625 7.5 36.90625 12.40625 
Q 36.90625 16.90625 34.59375 20.296875 
Q 32.296875 23.703125 27.09375 27.203125 
z
" id="STIXGeneral-Regular-56"/>
     </defs>
     <g transform="translate(69.51 35.3475)scale(0.08 -0.08)">
      <use transform="translate(0 0.40625)" xlink:href="#STIXGeneral-Italic-76"/>
      <use transform="translate(70.039987 0.40625)" xlink:href="#STIXGeneral-Regular-61"/>
      <use transform="translate(152.979968 0.40625)" xlink:href="#STIXGeneral-Regular-56"/>
     </g>
    </g>
    <g id="line2d_26"/>
    <g id="line2d_27">
     <g>
      <use style="fill:#ff7f0e;stroke:#ff7f0e;" x="55.11" xlink:href="#ma59cb7bfe8" y="43.88375"/>
     </g>
    </g>
    <g id="text_18">
     <!-- $L=$16 -->
     <defs>
      <path d="M 44.59375 68.40625 
L 44.796875 66.796875 
Q 33 64.90625 25.09375 57.25 
Q 17.203125 49.59375 15.203125 38.296875 
Q 21 42.796875 27.90625 42.796875 
Q 36.703125 42.796875 41.75 37.1875 
Q 46.796875 31.59375 46.796875 21.90625 
Q 46.796875 12.09375 41.703125 5.90625 
Q 35.796875 -1.40625 25.796875 -1.40625 
Q 13.59375 -1.40625 8.09375 8.703125 
Q 3.40625 17.296875 3.40625 27.90625 
Q 3.40625 44.296875 14.296875 55.5 
Q 20.5 61.90625 27.046875 64.546875 
Q 33.59375 67.203125 44.59375 68.40625 
z
M 37.796875 18.796875 
Q 37.796875 38.203125 24.296875 38.203125 
Q 19.296875 38.203125 16 35.546875 
Q 12.703125 32.90625 12.703125 26.59375 
Q 12.703125 14.90625 16.34375 8.15625 
Q 20 1.40625 26.90625 1.40625 
Q 32.203125 1.40625 35 6.15625 
Q 37.796875 10.90625 37.796875 18.796875 
z
" id="STIXGeneral-Regular-54"/>
     </defs>
     <g transform="translate(69.51 46.68375)scale(0.08 -0.08)">
      <use transform="translate(0 0.59375)" xlink:href="#STIXGeneral-Italic-76"/>
      <use transform="translate(70.039987 0.59375)" xlink:href="#STIXGeneral-Regular-61"/>
      <use transform="translate(152.979968 0.59375)" xlink:href="#STIXGeneral-Regular-49"/>
      <use transform="translate(202.979953 0.59375)" xlink:href="#STIXGeneral-Regular-54"/>
     </g>
    </g>
    <g id="line2d_28"/>
    <g id="line2d_29">
     <g>
      <use style="fill:#2ca02c;stroke:#2ca02c;" x="55.11" xlink:href="#m395932e64c" y="55.22"/>
     </g>
    </g>
    <g id="text_19">
     <!-- $L=$32 -->
     <g transform="translate(69.51 58.02)scale(0.08 -0.08)">
      <use transform="translate(0 0.40625)" xlink:href="#STIXGeneral-Italic-76"/>
      <use transform="translate(70.039987 0.40625)" xlink:href="#STIXGeneral-Regular-61"/>
      <use transform="translate(152.979968 0.40625)" xlink:href="#STIXGeneral-Regular-51"/>
      <use transform="translate(202.979953 0.40625)" xlink:href="#STIXGeneral-Regular-50"/>
     </g>
    </g>
    <g id="line2d_30"/>
    <g id="line2d_31">
     <g>
      <use style="fill:#d62728;stroke:#d62728;" x="55.11" xlink:href="#m84117f096f" y="66.55625"/>
     </g>
    </g>
    <g id="text_20">
     <!-- $L=$64 -->
     <g transform="translate(69.51 69.35625)scale(0.08 -0.08)">
      <use transform="translate(0 0.59375)" xlink:href="#STIXGeneral-Italic-76"/>
      <use transform="translate(70.039987 0.59375)" xlink:href="#STIXGeneral-Regular-61"/>
      <use transform="translate(152.979968 0.59375)" xlink:href="#STIXGeneral-Regular-54"/>
      <use transform="translate(202.979953 0.59375)" xlink:href="#STIXGeneral-Regular-52"/>
     </g>
    </g>
    <g id="line2d_32"/>
    <g id="line2d_33">
     <g>
      <use style="fill:#9467bd;stroke:#9467bd;" x="55.11" xlink:href="#m5d7330f92a" y="77.8925"/>
     </g>
    </g>
    <g id="text_21">
     <!-- $L=$128 -->
     <g transform="translate(69.51 80.6925)scale(0.08 -0.08)">
      <use transform="translate(0 0.40625)" xlink:href="#STIXGeneral-Italic-76"/>
      <use transform="translate(70.039987 0.40625)" xlink:href="#STIXGeneral-Regular-61"/>
      <use transform="translate(152.979968 0.40625)" xlink:href="#STIXGeneral-Regular-49"/>
      <use transform="translate(202.979953 0.40625)" xlink:href="#STIXGeneral-Regular-50"/>
      <use transform="translate(252.979938 0.40625)" xlink:href="#STIXGeneral-Regular-56"/>
     </g>
    </g>
    <g id="line2d_34"/>
    <g id="line2d_35">
     <g>
      <use style="fill:#1f77b4;stroke:#1f77b4;" x="55.11" xlink:href="#m80089aae63" y="89.22875"/>
     </g>
    </g>
    <g id="text_22">
     <!-- $L=$8 -->
     <g transform="translate(69.51 92.02875)scale(0.08 -0.08)">
      <use transform="translate(0 0.40625)" xlink:href="#STIXGeneral-Italic-76"/>
      <use transform="translate(70.039987 0.40625)" xlink:href="#STIXGeneral-Regular-61"/>
      <use transform="translate(152.979968 0.40625)" xlink:href="#STIXGeneral-Regular-56"/>
     </g>
    </g>
    <g id="line2d_36"/>
    <g id="line2d_37">
     <g>
      <use style="fill:#ff7f0e;stroke:#ff7f0e;" x="55.11" xlink:href="#m9b78ae101e" y="100.565"/>
     </g>
    </g>
    <g id="text_23">
     <!-- $L=$16 -->
     <g transform="translate(69.51 103.365)scale(0.08 -0.08)">
      <use transform="translate(0 0.59375)" xlink:href="#STIXGeneral-Italic-76"/>
      <use transform="translate(70.039987 0.59375)" xlink:href="#STIXGeneral-Regular-61"/>
      <use transform="translate(152.979968 0.59375)" xlink:href="#STIXGeneral-Regular-49"/>
      <use transform="translate(202.979953 0.59375)" xlink:href="#STIXGeneral-Regular-54"/>
     </g>
    </g>
    <g id="line2d_38"/>
    <g id="line2d_39">
     <g>
      <use style="fill:#2ca02c;stroke:#2ca02c;" x="55.11" xlink:href="#m2764cf2da8" y="111.90125"/>
     </g>
    </g>
    <g id="text_24">
     <!-- $L=$32 -->
     <g transform="translate(69.51 114.70125)scale(0.08 -0.08)">
      <use transform="translate(0 0.40625)" xlink:href="#STIXGeneral-Italic-76"/>
      <use transform="translate(70.039987 0.40625)" xlink:href="#STIXGeneral-Regular-61"/>
      <use transform="translate(152.979968 0.40625)" xlink:href="#STIXGeneral-Regular-51"/>
      <use transform="translate(202.979953 0.40625)" xlink:href="#STIXGeneral-Regular-50"/>
     </g>
    </g>
    <g id="line2d_40"/>
    <g id="line2d_41">
     <g>
      <use style="fill:#d62728;stroke:#d62728;" x="55.11" xlink:href="#m5278a58ea8" y="123.2375"/>
     </g>
    </g>
    <g id="text_25">
     <!-- $L=$64 -->
     <g transform="translate(69.51 126.0375)scale(0.08 -0.08)">
      <use transform="translate(0 0.59375)" xlink:href="#STIXGeneral-Italic-76"/>
      <use transform="translate(70.039987 0.59375)" xlink:href="#STIXGeneral-Regular-61"/>
      <use transform="translate(152.979968 0.59375)" xlink:href="#STIXGeneral-Regular-54"/>
      <use transform="translate(202.979953 0.59375)" xlink:href="#STIXGeneral-Regular-52"/>
     </g>
    </g>
    <g id="line2d_42"/>
    <g id="line2d_43">
     <g>
      <use style="fill:#9467bd;stroke:#9467bd;" x="55.11" xlink:href="#mb6f97bc9cc" y="134.57375"/>
     </g>
    </g>
    <g id="text_26">
     <!-- $L=$128 -->
     <g transform="translate(69.51 137.37375)scale(0.08 -0.08)">
      <use transform="translate(0 0.40625)" xlink:href="#STIXGeneral-Italic-76"/>
      <use transform="translate(70.039987 0.40625)" xlink:href="#STIXGeneral-Regular-61"/>
      <use transform="translate(152.979968 0.40625)" xlink:href="#STIXGeneral-Regular-49"/>
      <use transform="translate(202.979953 0.40625)" xlink:href="#STIXGeneral-Regular-50"/>
      <use transform="translate(252.979938 0.40625)" xlink:href="#STIXGeneral-Regular-56"/>
     </g>
    </g>
   </g>
  </g>
 </g>
 <defs>
  <clipPath id="p2595df5555">
   <rect height="161.28625" width="282.99" x="39.91" y="22.5475"/>
  </clipPath>
 </defs>
</svg>
